<?xml version="1.0" encoding="UTF-8"?><svg id="Layer_2" xmlns="http://www.w3.org/2000/svg" viewBox="0 0 1630.06 150"><g id="Layer_1-2"><path d="M283.57,149.79h-14.96L185.92,24.13v125.65h-14.96V.41h14.96l82.7,125.44V.41h14.96v149.38Z"/><path d="M425.68,9.39c11.82,5.98,20.87,14.6,27.14,25.86,6.27,11.26,9.4,24.65,9.4,40.18s-3.13,28.67-9.4,39.85c-6.27,11.19-15.32,19.73-27.14,25.64-11.83,5.91-26,8.87-42.53,8.87h-44.23V.41h44.23c16.52,0,30.7,2.99,42.53,8.98ZM430.7,121.04c10.9-10.9,16.35-26.1,16.35-45.62s-5.45-35.01-16.35-46.05c-10.9-11.04-26.75-16.56-47.55-16.56h-29.28v124.58h29.28c20.8,0,36.65-5.45,47.55-16.35Z"/><path d="M590.65,149.79l-36.97-62.4h-27.57v62.4h-14.96V.41h44.88c16.67,0,29.31,3.99,37.93,11.97,8.62,7.98,12.93,18.45,12.93,31.41,0,10.83-3.1,20.05-9.29,27.67-6.2,7.62-15.35,12.57-27.46,14.85l38.46,63.47h-17.95ZM526.12,75.21h30.13c11.68,0,20.48-2.85,26.39-8.55,5.91-5.7,8.87-13.32,8.87-22.87s-2.85-17.42-8.55-22.76c-5.7-5.34-14.67-8.01-26.92-8.01h-29.92v62.19Z"/><path d="M968.04.41l-42.31,149.38h-16.67l-37.61-127.36-38.46,127.36-16.24.21L775.28.41h16.03l34.19,131L863.76.41h16.67l37.18,131L952.01.41h16.03Z"/><path d="M1183.44,85.46c5.84,6.98,8.76,15.1,8.76,24.36,0,7.55-1.89,14.36-5.66,20.41-3.78,6.06-9.3,10.83-16.56,14.32-7.27,3.5-15.95,5.24-26.07,5.24h-51.72V.41h50.22c15.1,0,26.6,3.49,34.51,10.47,7.91,6.98,11.86,16.03,11.86,27.14,0,9.26-2.49,16.78-7.48,22.55-4.99,5.77-11.4,9.79-19.23,12.07,8.4,1.57,15.53,5.84,21.37,12.82ZM1107.15,66.44h34.83c10.11,0,17.91-2.38,23.4-7.16,5.49-4.77,8.23-11.36,8.23-19.77s-2.74-14.75-8.23-19.45c-5.49-4.7-13.5-7.05-24.04-7.05h-34.19v53.42ZM1168.16,129.49c6.06-5.13,9.08-12.18,9.08-21.16s-3.17-16.13-9.51-21.47c-6.34-5.34-14.85-8.01-25.54-8.01h-35.05v58.34h35.69c10.83,0,19.27-2.56,25.32-7.69Z"/><path d="M1610.4,149.79l-64.75-69.02v69.02h-14.96V.41h14.96v69.88L1610.4.41h19.02l-69.88,74.58,70.52,74.79h-19.66Z"/><polygon points="735.97 80.76 735.97 68.82 657.97 68.82 657.97 80.76 674.27 80.76 735.97 80.76"/><polygon points="657.97 137.39 657.97 149.79 735.97 149.79 735.97 137.39 672.93 137.39 657.97 137.39"/><polygon points="672.93 12.81 672.93 12.59 735.97 12.59 735.97 .2 657.97 .2 657.97 12.81 672.93 12.81"/><polygon points="1473.32 80.56 1473.32 68.62 1395.32 68.62 1395.32 80.56 1411.62 80.56 1473.32 80.56"/><polygon points="1395.32 137.19 1395.32 149.59 1473.32 149.59 1473.32 137.19 1410.28 137.19 1395.32 137.19"/><polygon points="1410.28 12.61 1410.28 12.39 1473.32 12.39 1473.32 0 1395.32 0 1395.32 12.61 1410.28 12.61"/><polygon points="71.37 2.34 54.49 2.34 0 149.79 15.81 149.79 27.42 118.21 33.35 101.92 33.34 101.92 42.77 76.07 42.78 76.06 42.78 76.06 62.83 21.14 82.88 76.06 82.88 76.06 82.93 76.22 92.32 101.92 92.3 101.92 98.23 118.2 109.84 149.79 125.65 149.79 71.37 2.34"/><polygon points="1296.8 2.34 1279.92 2.34 1225.43 149.79 1241.24 149.79 1252.56 118.99 1258.78 101.92 1258.77 101.92 1288.25 21.14 1311.21 84.01 1311.21 84.01 1311.25 84.12 1317.75 101.92 1317.74 101.92 1325.62 123.53 1325.62 123.53 1335.27 149.79 1351.08 149.79 1296.8 2.34"/></g></svg>